<svg xmlns="http://www.w3.org/2000/svg"><style>:root svg:not(:target){display:none}</style><svg id="icon-vk"><path d="M24.12 1.8c.16-.54 0-.94-.8-.94H20.7c-.67 0-.98.34-1.15.73 0 0-1.33 3.2-3.22 5.27-.61.6-.9.8-1.23.8-.16 0-.41-.2-.41-.75v-5.1c0-.66-.19-.95-.74-.95H9.82c-.42 0-.67.3-.67.59 0 .62.95.76 1.04 2.51v3.8c0 .83-.15.98-.48.98-.9 0-3.06-3.2-4.34-6.88-.25-.72-.5-1-1.18-1H1.57c-.75 0-.9.34-.9.73 0 .68.89 4.07 4.14 8.55 2.17 3.06 5.23 4.72 8 4.72 1.68 0 1.88-.37 1.88-1v-2.32c0-.74.16-.88.7-.88.38 0 1.05.19 2.6 1.66 1.79 1.75 2.08 2.54 3.08 2.54h2.63c.75 0 1.12-.37.9-1.1-.23-.72-1.08-1.77-2.2-3.02-.62-.71-1.54-1.48-1.82-1.86-.39-.5-.28-.71 0-1.15 0 0 3.2-4.42 3.54-5.93z" fill="currentColor"/></svg><svg id="icon-telegramm"><path d="M16.79.96L.84 7.1c-1.09.44-1.08 1.05-.2 1.32l4.1 1.28 9.47-5.98c.44-.27.85-.13.52.17l-7.68 6.93-.28 4.22c.41 0 .6-.2.83-.41l1.99-1.94 4.13 3.06c.77.42 1.31.2 1.5-.71l2.72-12.8c.28-1.1-.43-1.61-1.16-1.28z" fill="currentColor"/></svg><svg id="icon-youtube"><path d="M18.94.36H3.51C1.65.36.33 1.95.33 3.76v10.09c0 1.91 1.32 3.5 3.18 3.5h15.65c1.64 0 3.17-1.59 3.17-3.4V3.76c-.22-1.8-1.53-3.4-3.39-3.4zM7.99 12.89V4.82l7.34 4.04-7.34 4.03z" fill="currentColor"/></svg><svg id="icon-htmlacademy"><path d="M14.15.25h-.1L.5 1.59V25.22l13.55 7.654 13.45-7.654V1.589L14.15.25zm11.443 11.577L14.05 5.32v-.096h-.1l-.1-.096v.096L2.406 11.827V3.216L13.95 2.068l11.643 1.148v8.61zM13.95 6.756l11.543 6.41-4.517 2.488-7.127-4.019v1.34l5.922 3.348-.903.479-5.019-2.87v1.339l3.815 2.2-.803.479-3.012-1.722v1.34l1.908 1.051-1.807 1.053-11.443-6.41L13.95 6.756zm-11.543 7.94l11.442 6.507v.957L5.92 17.663v1.34l8.03 4.592v1.052L5.92 20.15v1.34l8.03 4.592 8.13-4.688V16.42l3.413-1.914v9.568L13.95 30.674 2.407 24.17v-9.472z" fill="currentColor"/></svg><svg id="icon-like"><path d="M12.964 3.78l-.628 3.045-.627 2.625h9.096v2.205L17.773 18.9h-9.41V8.4l4.6-4.62zM2.09 10.5v8.4-8.4zM13.8 0L6.9 6.93c-.418.315-.627.84-.627 1.47v10.5c0 1.155.94 2.1 2.09 2.1h9.41c.836 0 1.568-.525 1.881-1.26l3.137-7.455c.104-.21.104-.525.104-.735v-2.1H23c0-1.155-.94-2.1-2.09-2.1h-6.587l1.045-4.83v-.315c0-.42-.209-.84-.418-1.155L13.8 0zM4.182 8.4H0V21h4.182V8.4z"/></svg></svg>